<svg width="166" height="40" viewBox="0 0 166 40" fill="none" xmlns="http://www.w3.org/2000/svg">
<path d="M60.0472 13.5626L57.2701 16.0228C56.2953 14.6605 55.3025 13.9793 54.2919 13.9793C53.8 13.9793 53.3975 14.1138 53.0845 14.3826C52.7715 14.6425 52.615 14.9383 52.615 15.2699C52.615 15.6015 52.7267 15.9152 52.9503 16.211C53.2544 16.6053 54.1712 17.4523 55.7005 18.7518C57.1315 19.9528 57.9991 20.7101 58.3031 21.0238C59.0634 21.7946 59.6 22.534 59.913 23.242C60.235 23.9411 60.396 24.7073 60.396 25.5408C60.396 27.163 59.837 28.5029 58.719 29.5605C57.6011 30.6181 56.1432 31.1468 54.3456 31.1468C52.9414 31.1468 51.7161 30.8018 50.6697 30.1117C49.6322 29.4216 48.7423 28.3371 48 26.8583L51.1527 24.9493C52.1007 26.697 53.1918 27.5708 54.4261 27.5708C55.07 27.5708 55.6111 27.3826 56.0493 27.0062C56.4876 26.6298 56.7067 26.1951 56.7067 25.7022C56.7067 25.2541 56.5412 24.8059 56.2103 24.3578C55.8794 23.9097 55.1505 23.2241 54.0236 22.3009C51.8771 20.5443 50.4908 19.191 49.8648 18.241C49.2387 17.282 48.9257 16.3275 48.9257 15.3775C48.9257 14.0062 49.4444 12.8321 50.4819 11.8552C51.5283 10.8694 52.8162 10.3764 54.3456 10.3764C55.3294 10.3764 56.264 10.605 57.1494 11.062C58.0438 11.5191 59.0097 12.3526 60.0472 13.5626Z" fill="white"/>
<path d="M64.045 10.6319H67.694V16.0228H69.8674V19.182H67.694V30.6494H64.045V19.182H62.1668V16.0228H64.045V10.6319Z" fill="white"/>
<path d="M73.2749 10C73.9189 10 74.4689 10.233 74.925 10.6991C75.3901 11.1651 75.6226 11.7297 75.6226 12.393C75.6226 13.0472 75.3946 13.6074 74.9384 14.0734C74.4823 14.5305 73.9367 14.759 73.3017 14.759C72.6488 14.759 72.0899 14.526 71.6248 14.06C71.1687 13.585 70.9406 13.0114 70.9406 12.3392C70.9406 11.6939 71.1687 11.1427 71.6248 10.6856C72.0809 10.2285 72.631 10 73.2749 10ZM71.437 16.0228H75.1128V30.6494H71.437V16.0228Z" fill="white"/>
<path d="M92.7275 18.9804L89.6821 20.6608C89.1097 20.0603 88.5418 19.6436 87.9784 19.4105C87.4239 19.1775 86.771 19.061 86.0197 19.061C84.6513 19.061 83.5423 19.4733 82.6926 20.2978C81.8519 21.1134 81.4316 22.162 81.4316 23.4436C81.4316 24.6894 81.8385 25.7067 82.6524 26.4953C83.4663 27.284 84.535 27.6784 85.8587 27.6784C87.4954 27.6784 88.7699 27.1182 89.6821 25.9979L92.5665 27.9741C91.0013 30.0086 88.7922 31.0259 85.9392 31.0259C83.3724 31.0259 81.36 30.264 79.9022 28.7404C78.4533 27.2168 77.7289 25.4333 77.7289 23.3899C77.7289 21.9738 78.0822 20.6698 78.7887 19.4778C79.4953 18.2858 80.4791 17.3492 81.7401 16.668C83.0101 15.9869 84.4277 15.6463 85.9929 15.6463C87.4417 15.6463 88.743 15.9376 89.8968 16.5202C91.0505 17.0938 91.9941 17.9138 92.7275 18.9804Z" fill="white"/>
<path d="M96.0679 10.3764H99.7304V22.0589L105.123 16.0228H109.712L103.433 23.0403L110.476 30.6494H105.928L99.7304 23.9142V30.6494H96.0679V10.3764Z" fill="white"/>
<path d="M110.356 16.0228H114.098L117.895 25.2048L122.081 16.0228H125.837L116.688 36H112.904L115.91 29.5605L110.356 16.0228Z" fill="white"/>
<path d="M146.95 27.759L150.384 32.2089H145.93L144.186 29.9638C142.746 30.7525 141.141 31.1468 139.37 31.1468C136.41 31.1468 133.95 30.1251 131.992 28.0817C130.033 26.0293 129.054 23.587 129.054 20.7549C129.054 18.8638 129.51 17.1296 130.422 15.5522C131.334 13.9659 132.586 12.7067 134.178 11.7746C135.779 10.8425 137.496 10.3764 139.33 10.3764C142.129 10.3764 144.531 11.3892 146.534 13.4147C148.546 15.4402 149.553 17.9093 149.553 20.8221C149.553 23.5019 148.685 25.8142 146.95 27.759ZM144.602 24.7208C145.398 23.5377 145.796 22.2292 145.796 20.7952C145.796 18.9221 145.166 17.3313 143.905 16.0228C142.644 14.7142 141.119 14.06 139.33 14.06C137.487 14.06 135.945 14.6963 134.701 15.969C133.458 17.2416 132.837 18.8594 132.837 20.8221C132.837 23.009 133.619 24.7387 135.184 26.0114C136.41 27.0062 137.8 27.5036 139.357 27.5036C140.251 27.5036 141.092 27.3289 141.879 26.9793L138.351 22.4219H142.831L144.602 24.7208Z" fill="white"/>
<path d="M153.349 10.8738H157.334C159.516 10.8738 161.068 11.071 161.989 11.4654C162.919 11.8507 163.666 12.496 164.229 13.4012C164.793 14.3064 165.074 15.3775 165.074 16.6143C165.074 17.9138 164.761 19.0028 164.135 19.8811C163.518 20.7504 162.583 21.4092 161.331 21.8573L166 30.6494H161.895L157.454 22.274H157.105V30.6494H153.349V10.8738ZM157.105 18.6039H158.286C159.485 18.6039 160.307 18.4471 160.755 18.1334C161.211 17.8197 161.439 17.2999 161.439 16.5739C161.439 16.1437 161.327 15.7718 161.103 15.4581C160.88 15.1355 160.58 14.9069 160.204 14.7725C159.829 14.6291 159.14 14.5574 158.138 14.5574H157.105V18.6039Z" fill="white"/>
<path fill-rule="evenodd" clip-rule="evenodd" d="M39.5502 26.4211C38.8911 26.9643 37.595 27.0647 36.0894 27.1814C33.8481 27.3551 31.1425 27.5647 29.3825 29.3247C27.6284 31.0788 27.4076 33.7861 27.2241 36.0366C27.1025 37.5273 26.9973 38.8176 26.4736 39.4976L39.5502 26.4211Z" fill="#AA3800"/>
<path d="M11.0526 0C4.94843 0 0 4.94843 0 11.0526V28.9474C0 35.0516 4.94843 40 11.0526 40H25.3684C26.886 40 27.0301 38.2329 27.21 36.0268C27.2717 35.2704 27.3376 34.4624 27.4645 33.6563C27.2595 33.6748 27.0519 33.6842 26.8421 33.6842H13.1579C9.3791 33.6842 6.31579 30.6209 6.31579 26.8421V13.1579C6.31579 9.3791 9.3791 6.31579 13.1579 6.31579H33.6842V26.8421C33.6842 27.0383 33.676 27.2325 33.6598 27.4245C34.4816 27.2951 35.3058 27.2312 36.0753 27.1716C38.2578 27.0025 40 26.8675 40 25.3684V0H11.0526Z" fill="#FF4F0F"/>
<path d="M12.6316 15.2632C12.6316 13.8098 13.8098 12.6316 15.2632 12.6316H27.3684V24.7369C27.3684 26.1902 26.1902 27.3684 24.7369 27.3684H15.2632C13.8098 27.3684 12.6316 26.1902 12.6316 24.7369V15.2632Z" fill="#FF4F0F"/>
</svg>
